# Blender 4.1.0
# www.blender.org
mtllib table.mtl
o Cube
v 1.608139 0.050360 -3.006495
v 1.608139 -0.050360 -3.006495
v 1.608139 0.050360 3.006495
v 1.608139 -0.050360 3.006495
v -1.608139 0.050360 -3.006495
v -1.608139 -0.050360 -3.006495
v -1.608139 0.050360 3.006495
v -1.608139 -0.050360 3.006495
v 1.679027 0.048027 -2.867192
v 1.679027 -0.048027 -2.867192
v 1.679027 0.048027 2.867192
v 1.679027 -0.048027 2.867192
vn -0.0000 1.0000 -0.0000
vn -0.0000 -0.0000 1.0000
vn -1.0000 -0.0000 -0.0000
vn -0.0000 -1.0000 -0.0000
vn 0.8912 -0.0000 0.4535
vn -0.0000 -0.0000 -1.0000
vn 1.0000 -0.0000 -0.0000
vn 0.8912 -0.0000 -0.4535
vn 0.0329 -0.9995 -0.0000
vn 0.0329 0.9995 -0.0000
vt 0.625000 0.500000
vt 0.875000 0.500000
vt 0.875000 0.750000
vt 0.625000 0.750000
vt 0.375000 0.750000
vt 0.625000 1.000000
vt 0.375000 1.000000
vt 0.375000 0.000000
vt 0.625000 0.000000
vt 0.625000 0.250000
vt 0.375000 0.250000
vt 0.125000 0.500000
vt 0.375000 0.500000
vt 0.125000 0.750000
s 0
usemtl Default
f 1/1/1 5/2/1 7/3/1 3/4/1
f 4/5/2 3/4/2 7/6/2 8/7/2
f 8/8/3 7/9/3 5/10/3 6/11/3
f 6/12/4 2/13/4 4/5/4 8/14/4
f 3/4/5 4/5/5 12/5/5 11/4/5
f 6/11/6 5/10/6 1/1/6 2/13/6
f 10/13/7 9/1/7 11/4/7 12/5/7
f 2/13/8 1/1/8 9/1/8 10/13/8
f 4/5/9 2/13/9 10/13/9 12/5/9
f 1/1/10 3/4/10 11/4/10 9/1/10
o Cube.001
v -1.543756 -1.046359 -3.009749
v -1.644476 -1.046359 -3.009749
v -1.543755 -1.046359 3.003242
v -1.644475 -1.046359 3.003242
v -1.543756 2.169919 -3.009749
v -1.644476 2.169919 -3.009749
v -1.543755 2.169919 3.003242
v -1.644475 2.169919 3.003242
v -1.644476 2.169919 -1.506501
v -1.644476 2.169919 -0.003254
v -1.644475 2.169919 1.499994
v -1.644476 -1.046359 1.499994
v -1.644476 -1.046359 -0.003254
v -1.644476 -1.046359 -1.506501
v -1.543756 -1.046359 -1.600524
v -1.543756 -1.046359 -1.412479
v -1.545331 -1.046359 -1.506501
v -1.543756 -1.046359 -0.097276
v -1.543756 -1.046359 0.090769
v -1.545330 -1.046359 -0.003254
v -1.543755 -1.046359 1.405971
v -1.543755 -1.046359 1.594017
v -1.545330 -1.046359 1.499994
v -1.543755 2.169919 1.594017
v -1.543755 2.169919 1.405971
v -1.545330 2.169919 1.499994
v -1.543755 2.169919 0.090769
v -1.543755 2.169919 -0.097276
v -1.545330 2.169919 -0.003254
v -1.543756 2.169919 -1.412479
v -1.543756 2.169919 -1.600524
v -1.545331 2.169919 -1.506501
v -1.479952 -1.046359 0.043125
v -1.479622 -1.035803 0.071034
v -1.480020 -1.046359 0.090769
v -1.480020 -1.046359 -0.097276
v -1.479622 -1.035803 -0.077541
v -1.479952 -1.046359 -0.049632
v -1.481598 -1.046359 -0.003254
v -1.480729 -1.046359 -0.003254
v -1.479622 -1.035803 -1.432213
v -1.480020 -1.046359 -1.412479
v -1.479953 -1.046359 -1.460123
v -1.479622 -1.035803 -1.580789
v -1.479953 -1.046359 -1.552880
v -1.480020 -1.046359 -1.600524
v -1.481598 -1.046359 -1.506501
v -1.480729 -1.046359 -1.506501
v -1.480729 -1.046359 1.499994
v -1.481597 -1.046359 1.499994
v -1.480020 -1.046359 1.405971
v -1.479621 -1.035803 1.425706
v -1.479952 -1.046359 1.453616
v -1.479952 -1.046359 1.546372
v -1.479621 -1.035803 1.574282
v -1.480020 -1.046359 1.594017
v -1.480729 2.169919 1.499994
v -1.481597 2.169919 1.499994
v -1.480020 2.169919 1.594017
v -1.479621 2.159363 1.574282
v -1.479952 2.169919 1.546372
v -1.479952 2.169919 1.453616
v -1.479621 2.159363 1.425706
v -1.480020 2.169919 1.405971
v -1.480729 2.169919 -0.003254
v -1.481598 2.169919 -0.003254
v -1.480020 2.169919 0.090769
v -1.479622 2.159363 0.071034
v -1.479952 2.169919 0.043125
v -1.479952 2.169919 -0.049632
v -1.479622 2.159363 -0.077541
v -1.480020 2.169919 -0.097276
v -1.480729 2.169919 -1.506501
v -1.481598 2.169919 -1.506501
v -1.479622 2.159363 -1.432213
v -1.479952 2.169919 -1.460123
v -1.480020 2.169919 -1.412479
v -1.479622 2.159363 -1.580789
v -1.480020 2.169919 -1.600524
v -1.479952 2.169919 -1.552880
v -1.644475 2.169919 1.499994
v -1.644475 2.169919 3.003242
v -1.644476 -1.046359 -3.009749
v -1.644476 2.169919 -3.009749
v -1.543756 -1.046359 -3.009749
v -1.543755 2.169919 3.003242
v -1.543755 -1.046359 3.003242
v -1.644475 -1.046359 3.003242
v -1.543756 2.169919 -3.009749
v -1.644476 2.169919 -1.506501
v -1.644476 2.169919 -0.003254
v -1.545330 2.169919 1.499994
v -1.543755 2.169919 1.594017
v -1.543755 2.169919 1.405971
v -1.545330 2.169919 -0.003254
v -1.543755 2.169919 0.090769
v -1.543755 2.169919 -0.097276
v -1.545331 2.169919 -1.506501
v -1.543756 2.169919 -1.412479
v -1.543756 2.169919 -1.600524
v -1.642773 2.202862 1.462879
v -1.642773 2.202862 2.929012
v -1.544539 2.202862 2.929012
v -1.544540 2.202862 -2.935519
v -1.642774 2.202862 -2.935519
v -1.642774 2.202862 -1.469386
v -1.642773 2.202862 -0.003254
v -1.546076 2.202862 1.462879
v -1.544539 2.202862 1.554580
v -1.544539 2.202862 1.371178
v -1.546076 2.202862 -0.003254
v -1.544540 2.202862 0.088448
v -1.544540 2.202862 -0.094955
v -1.546076 2.202862 -1.469386
v -1.544540 2.202862 -1.377685
v -1.544540 2.202862 -1.561088
vn 1.0000 -0.0000 -0.0000
vn -0.0000 -1.0000 -0.0000
vn -1.0000 -0.0000 -0.0000
vn -0.0000 1.0000 -0.0000
vn -0.0000 -0.0000 -1.0000
vn -0.0000 -0.0000 1.0000
vn 0.9994 -0.0351 0.0014
vn 0.9994 -0.0351 -0.0014
vn 0.9994 0.0351 0.0014
vn 0.9994 0.0351 -0.0014
vn 0.9995 -0.0313 -0.0000
vn 0.9995 0.0313 -0.0000
vn 0.9998 -0.0000 0.0202
vn 0.9998 -0.0000 -0.0202
vn 0.9990 0.0415 0.0167
vn 0.9997 0.0238 -0.0000
vn -0.0000 0.9140 -0.4056
vn 0.9999 0.0038 -0.0167
vn 0.9996 0.0226 -0.0167
vn -0.9987 0.0516 -0.0000
vn 0.9996 0.0226 0.0167
vn 0.9990 0.0415 -0.0167
vn 0.9999 0.0038 0.0167
vn -0.0000 0.9140 0.4056
vt 0.625000 0.058591
vt 0.621091 0.062500
vt 0.125000 0.500000
vt 0.125000 0.562500
vt 0.625000 0.566409
vt 0.621091 0.562500
vt 0.625000 0.566409
vt 0.125000 0.687500
vt 0.375000 0.687500
vt 0.375000 0.750000
vt 0.125000 0.750000
vt 0.625000 0.691409
vt 0.875000 0.691409
vt 0.875000 0.750000
vt 0.625000 0.750000
vt 0.875000 0.566409
vt 0.875000 0.621091
vt 0.625000 0.621091
vt 0.375000 0.500000
vt 0.625000 0.500000
vt 0.625000 0.558591
vt 0.375000 0.562500
vt 0.621091 0.687500
vt 0.375000 0.625000
vt 0.125000 0.625000
vt 0.875000 0.558591
vt 0.875000 0.500000
vt 0.625000 0.621091
vt 0.621091 0.625000
vt 0.625000 0.628909
vt 0.875000 0.628909
vt 0.875000 0.683591
vt 0.625000 0.683591
vt 0.621091 0.625000
vt 0.625000 0.628909
vt 0.621091 0.687500
vt 0.621091 0.187500
vt 0.625000 0.183591
vt 0.624179 0.122492
vt 0.624179 0.124420
vt 0.622251 0.124420
vt 0.624179 0.184992
vt 0.624179 0.186920
vt 0.622251 0.186920
vt 0.875000 0.566409
vt 0.874180 0.628089
vt 0.625821 0.628089
vt 0.625821 0.621911
vt 0.874180 0.621911
vt 0.625000 0.066409
vt 0.625000 0.128909
vt 0.621091 0.125000
vt 0.625000 0.128909
vt 0.624179 0.560572
vt 0.624179 0.564428
vt 0.622251 0.562500
vt 0.624179 0.685572
vt 0.624179 0.689428
vt 0.622251 0.687500
vt 0.874180 0.565589
vt 0.625821 0.565589
vt 0.625820 0.559411
vt 0.874180 0.559411
vt 0.625000 0.121091
vt 0.625000 0.191409
vt 0.874180 0.690589
vt 0.625820 0.690589
vt 0.625821 0.684411
vt 0.874180 0.684411
vt 0.624179 0.059992
vt 0.624179 0.061920
vt 0.622251 0.061920
vt 0.624179 0.626928
vt 0.624179 0.623072
vt 0.875000 0.689428
vt 0.625000 0.062090
vt 0.624506 0.062500
vt 0.875000 0.626928
vt 0.625000 0.124590
vt 0.624506 0.125000
vt 0.625000 0.184001
vt 0.624506 0.184085
vt 0.875000 0.560572
vt 0.625000 0.187090
vt 0.622251 0.625000
vt 0.625000 0.121501
vt 0.625000 0.059001
vt 0.624506 0.187500
vt 0.625000 1.000000
vt 0.375000 1.000000
vt 0.375000 0.250000
vt 0.625000 0.250000
vt 0.375000 0.000000
vt 0.625000 0.000000
vt 0.375000 0.062500
vt 0.375000 0.125000
vt 0.375000 0.187500
s 0
usemtl Default
f 36/15/11 38/16/11 104/16/11 105/15/11
f 18/17/11 21/18/11 102/18/11 96/17/11
f 28/19/12 29/20/12 59/20/12 54/21/12
f 23/22/13 24/23/13 16/24/13 20/25/13
f 34/26/11 36/27/11 19/28/11 15/29/11
f 19/28/11 36/27/11 105/27/11 98/28/11
f 28/19/11 42/30/11 40/31/11 30/32/11
f 14/33/12 13/34/12 27/35/12 29/20/12 26/36/12
f 24/23/12 35/37/12 34/26/12 15/29/12 16/24/12
f 18/17/13 14/33/13 26/36/13 21/18/13
f 21/18/13 26/36/13 25/38/13 22/39/13
f 22/39/13 25/38/13 24/23/13 23/22/13
f 13/34/11 14/33/11 95/33/11 97/34/11
f 14/33/11 18/17/11 96/17/11 95/33/11
f 43/40/11 17/41/11 101/41/11 112/40/11
f 26/36/12 29/20/12 28/19/12 30/42/12 32/43/12 25/38/12
f 31/44/11 39/45/11 37/46/11 33/47/11
f 25/38/12 32/48/12 31/49/12 33/47/12 35/50/12 24/23/12
f 31/49/12 32/48/12 51/48/12 47/49/12
f 32/43/12 30/42/12 48/42/12 51/48/12
f 35/50/12 33/47/12 63/47/12 62/50/12
f 81/53/14 82/54/14 77/55/14
f 29/20/12 27/35/12 58/35/12 59/20/12
f 30/32/15 40/31/15 84/31/15 48/32/15
f 88/56/14 92/57/14 85/58/14
f 13/34/11 17/41/11 43/40/11 27/35/11
f 34/26/12 35/37/12 62/37/12 68/26/12
f 57/68/12 55/69/12 60/70/12
f 39/45/16 31/44/16 47/44/16 79/45/16
f 65/71/12 66/72/12 61/73/12
f 73/84/14 74/85/14 69/86/14
f 45/87/17 46/61/17 47/49/17
f 48/32/18 49/62/18 50/88/18
f 53/75/17 54/21/17 55/69/17
f 56/76/18 57/68/18 58/35/18
f 63/47/18 64/82/18 65/71/18
f 66/72/17 67/81/17 68/26/17
f 70/16/14 71/15/14 73/84/14 69/86/14
f 56/76/21 53/75/21 55/69/21 57/68/21
f 86/51/14 89/52/14 88/56/14 85/58/14
f 78/66/14 79/78/14 81/53/14 77/55/14
f 62/50/12 63/47/12 65/71/12 61/73/12
f 47/49/12 51/48/12 52/99/12 45/87/12
f 51/48/12 48/42/12 50/88/12 52/99/12
f 84/94/14 78/66/14 77/55/14 82/54/14
f 76/91/14 70/16/14 69/86/14 74/85/14
f 68/26/12 62/37/12 61/73/12 66/72/12
f 49/62/21 46/61/21 45/87/21 50/88/21
f 54/21/12 59/20/12 60/70/12 55/69/12
f 59/20/12 58/35/12 57/68/12 60/70/12
f 64/82/21 67/81/21 66/72/21 65/71/21
f 91/102/14 86/51/14 85/58/14 92/57/14
f 50/88/12 45/87/12 52/99/12
f 104/16/25 106/64/25 122/64/25 120/16/25
f 100/24/16 99/29/16 98/103/16 94/104/16
f 96/105/15 101/106/15 97/34/15 95/33/15
f 106/46/26 108/45/26 124/45/26 122/46/26
f 101/106/27 96/105/27 117/105/27 116/106/27
f 105/15/28 104/16/28 120/16/28 121/15/28
f 21/18/11 22/39/11 103/39/11 102/18/11
f 38/16/11 37/64/11 106/64/11 104/16/11
f 16/24/11 15/29/11 99/29/11 100/24/11
f 22/39/11 23/22/11 93/22/11 103/39/11
f 39/78/11 41/66/11 107/66/11 108/78/11
f 40/31/11 42/30/11 111/30/11 109/31/11
f 41/66/11 40/65/11 109/65/11 107/66/11
f 15/29/11 19/28/11 98/28/11 99/29/11
f 42/52/11 44/51/11 110/51/11 111/52/11
f 37/46/11 39/45/11 108/45/11 106/46/11
f 20/25/11 16/24/11 100/24/11 94/25/11
f 23/22/11 20/25/11 94/25/11 93/22/11
f 44/51/11 43/79/11 112/79/11 110/51/11
f 17/41/11 13/34/11 97/34/11 101/41/11
f 114/107/14 115/108/14 121/15/14 120/16/14 113/109/14
f 113/109/14 120/16/14 122/64/14 124/78/14 123/66/14 119/110/14
f 119/110/14 123/66/14 125/65/14 127/52/14 126/51/14 118/111/14
f 118/111/14 126/51/14 128/79/14 116/106/14 117/105/14
f 98/28/26 105/27/26 121/27/26 115/28/26
f 108/78/29 107/66/29 123/66/29 124/78/29
f 93/22/30 94/25/30 114/25/30 113/22/30
f 107/66/31 109/65/31 125/65/31 123/66/31
f 111/52/32 110/51/32 126/51/32 127/52/32
f 96/17/30 102/18/30 118/18/30 117/17/30
f 110/51/33 112/79/33 128/79/33 126/51/33
f 102/18/30 103/39/30 119/39/30 118/18/30
f 94/104/34 98/103/34 115/103/34 114/104/34
f 112/40/26 101/41/26 116/41/26 128/40/26
f 103/39/30 93/22/30 113/22/30 119/39/30
f 109/31/26 111/30/26 127/30/26 125/31/26
usemtl Material
f 44/51/14 42/52/14 89/52/14 86/51/14
f 42/30/16 28/19/16 54/19/16 89/59/16
f 80/60/11 46/61/11 49/62/11 83/63/11
f 37/64/14 38/16/14 70/16/14 76/64/14
f 40/65/14 41/66/14 78/66/14 84/67/14
f 33/47/15 37/46/15 76/46/15 63/47/15
f 87/74/11 53/75/11 56/76/11 90/77/11
f 41/66/14 39/78/14 79/78/14 78/66/14
f 38/16/14 36/15/14 71/15/14 70/16/14
f 27/35/15 43/40/15 91/40/15 58/35/15
f 43/79/14 44/51/14 86/51/14 91/79/14
f 72/80/11 67/81/11 64/82/11 75/83/11
f 36/27/16 34/26/16 68/26/16 71/27/16
f 71/27/19 72/80/19 73/89/19
f 74/85/20 75/90/20 76/91/20
f 79/45/19 80/60/19 81/92/19
f 82/54/20 83/93/20 84/94/20
f 87/95/19 88/56/19 89/96/19
f 90/77/20 91/40/20 92/97/20
f 87/95/22 90/98/22 92/57/22 88/56/22
f 80/100/22 83/93/22 82/54/22 81/53/22
f 72/101/22 75/90/22 74/85/22 73/84/22
f 89/59/23 54/19/23 53/75/23 87/74/23
f 58/35/24 91/40/24 90/77/24 56/76/24
f 79/45/23 47/44/23 46/61/23 80/60/23
f 48/32/24 84/31/24 83/63/24 49/62/24
f 71/27/23 68/26/23 67/81/23 72/80/23
f 63/47/24 76/46/24 75/83/24 64/82/24
o Cube.002
v -1.204939 0.981984 -0.028534
v -1.204939 0.896053 -0.028534
v -1.204939 0.981984 1.531230
v -1.204939 0.896053 1.531230
v -1.524822 0.981984 -0.028534
v -1.524822 0.896053 -0.028534
v -1.524822 0.981984 1.531230
v -1.524822 0.896053 1.531230
v -1.197888 0.979993 0.007601
v -1.197888 0.898044 0.007601
v -1.197888 0.979993 1.495095
v -1.197888 0.898044 1.495095
vn -0.0000 1.0000 -0.0000
vn -0.0000 -0.0000 1.0000
vn -1.0000 -0.0000 -0.0000
vn -0.0000 -1.0000 -0.0000
vn 0.9815 -0.0000 0.1915
vn -0.0000 -0.0000 -1.0000
vn 1.0000 -0.0000 -0.0000
vn 0.9815 -0.0000 -0.1915
vn 0.2717 -0.9624 -0.0000
vn 0.2717 0.9624 -0.0000
vt 0.625000 0.500000
vt 0.875000 0.500000
vt 0.875000 0.750000
vt 0.625000 0.750000
vt 0.375000 0.750000
vt 0.625000 1.000000
vt 0.375000 1.000000
vt 0.375000 0.000000
vt 0.625000 0.000000
vt 0.625000 0.250000
vt 0.375000 0.250000
vt 0.125000 0.500000
vt 0.375000 0.500000
vt 0.125000 0.750000
s 0
usemtl Material.001
f 129/112/35 133/113/35 135/114/35 131/115/35
f 132/116/36 131/115/36 135/117/36 136/118/36
f 136/119/37 135/120/37 133/121/37 134/122/37
f 134/123/38 130/124/38 132/116/38 136/125/38
f 131/115/39 132/116/39 140/116/39 139/115/39
f 134/122/40 133/121/40 129/112/40 130/124/40
f 138/124/41 137/112/41 139/115/41 140/116/41
f 130/124/42 129/112/42 137/112/42 138/124/42
f 132/116/43 130/124/43 138/124/43 140/116/43
f 129/112/44 131/115/44 139/115/44 137/112/44
o Cube.003
v -1.236418 1.529984 -1.566520
v -1.236418 1.444053 -1.566520
v -1.236418 1.529984 -0.006756
v -1.236418 1.444053 -0.006756
v -1.556302 1.529984 -1.566520
v -1.556302 1.444053 -1.566520
v -1.556302 1.529984 -0.006756
v -1.556302 1.444053 -0.006756
v -1.229368 1.527994 -1.530385
v -1.229368 1.446044 -1.530385
v -1.229368 1.527994 -0.042891
v -1.229368 1.446044 -0.042891
vn -0.0000 1.0000 -0.0000
vn -0.0000 -0.0000 1.0000
vn -1.0000 -0.0000 -0.0000
vn -0.0000 -1.0000 -0.0000
vn 0.9815 -0.0000 0.1915
vn -0.0000 -0.0000 -1.0000
vn 1.0000 -0.0000 -0.0000
vn 0.9815 -0.0000 -0.1915
vn 0.2717 -0.9624 -0.0000
vn 0.2717 0.9624 -0.0000
vt 0.625000 0.500000
vt 0.875000 0.500000
vt 0.875000 0.750000
vt 0.625000 0.750000
vt 0.375000 0.750000
vt 0.625000 1.000000
vt 0.375000 1.000000
vt 0.375000 0.000000
vt 0.625000 0.000000
vt 0.625000 0.250000
vt 0.375000 0.250000
vt 0.125000 0.500000
vt 0.375000 0.500000
vt 0.125000 0.750000
s 0
usemtl Material.001
f 141/126/45 145/127/45 147/128/45 143/129/45
f 144/130/46 143/129/46 147/131/46 148/132/46
f 148/133/47 147/134/47 145/135/47 146/136/47
f 146/137/48 142/138/48 144/130/48 148/139/48
f 143/129/49 144/130/49 152/130/49 151/129/49
f 146/136/50 145/135/50 141/126/50 142/138/50
f 150/138/51 149/126/51 151/129/51 152/130/51
f 142/138/52 141/126/52 149/126/52 150/138/52
f 144/130/53 142/138/53 150/138/53 152/130/53
f 141/126/54 143/129/54 151/129/54 149/126/54
